<svg width="460.91998291015625px" height="188.75999755859374px" xmlns="http://www.w3.org/2000/svg" viewBox="19.540008544921875 -19.37999877929687 460.91998291015625 188.75999755859374" style="background: none; --darkreader-inline-bgcolor: rgba(0, 0, 0, 0); --darkreader-inline-bgimage: none;" data-darkreader-inline-bgcolor="" data-darkreader-inline-bgimage="" preserveAspectRatio="xMidYMid"><defs><filter id="editing-crystal" x="-100%" y="-100%" width="300%" height="300%"><feMorphology operator="dilate" radius="2" in="SourceGraphic" result="border"></feMorphology><feFlood flood-color="#fff" result="black"></feFlood><feMorphology operator="dilate" radius="2" in="SourceGraphic" result="erode"></feMorphology><feGaussianBlur in="erode" stdDeviation="4" result="blur"></feGaussianBlur><feOffset in="blur" dx="2" dy="2" result="offset"></feOffset><feComposite operator="atop" in="offset" in2="black" result="merge"></feComposite><feComposite operator="in" in="merge" in2="SourceGraphic" result="inner-shadow"></feComposite><feGaussianBlur in="SourceGraphic" stdDeviation="2.5" result="shadow1"></feGaussianBlur><feOffset in="shadow1" dx="0" dy="5" result="shadow"></feOffset><feSpecularLighting in="SourceGraphic" result="specular" surfaceScale="1.5" specularConstant="100" specularExponent="10" lighting-color="#ffffff"><fePointLight x="250" y="-300" z="-400"></fePointLight></feSpecularLighting><feGaussianBlur in="specular" stdDeviation="1" result="specular2"></feGaussianBlur><feComposite operator="in" in="specular2" in2="SourceAlpha" result="specular3"></feComposite><feMerge result="merge"><feMergeNode in="border"></feMergeNode><feMergeNode in="inner-shadow"></feMergeNode><feMergeNode in="specular3"></feMergeNode></feMerge><feComponentTransfer in="merge" result="final"><feFuncA type="linear" slope="0.9" intercept="0"></feFuncA></feComponentTransfer><feMerge><feMergeNode in="shadow"></feMergeNode><feMergeNode in="final"></feMergeNode></feMerge></filter></defs><g filter="url(#editing-crystal)"><g transform="translate(87.57999277114868, 95.37000370025635)"><path d="M22.44-29.04L22.44-29.04L22.44-29.04Q17.82-29.04 15.36-26.22L15.36-26.22L15.36-26.22Q12.90-23.40 12.90-18.24L12.90-18.24L12.90-18.24Q12.90-13.02 15.63-10.20L15.63-10.20L15.63-10.20Q18.36-7.38 22.98-7.38L22.98-7.38L22.98-7.38Q25.44-7.38 27.15-8.04L27.15-8.04L27.15-8.04Q28.86-8.70 30.42-9.54L30.42-9.54L30.42-9.54Q31.44-8.70 32.01-7.53L32.01-7.53L32.01-7.53Q32.58-6.36 32.58-4.80L32.58-4.80L32.58-4.80Q32.58-2.34 29.85-0.63L29.85-0.63L29.85-0.63Q27.12 1.08 21.54 1.08L21.54 1.08L21.54 1.08Q17.52 1.08 13.98-0.06L13.98-0.06L13.98-0.06Q10.44-1.20 7.80-3.57L7.80-3.57L7.80-3.57Q5.16-5.94 3.63-9.57L3.63-9.57L3.63-9.57Q2.10-13.20 2.10-18.24L2.10-18.24L2.10-18.24Q2.10-22.92 3.57-26.49L3.57-26.49L3.57-26.49Q5.04-30.06 7.59-32.52L7.59-32.52L7.59-32.52Q10.14-34.98 13.56-36.24L13.56-36.24L13.56-36.24Q16.98-37.50 20.88-37.50L20.88-37.50L20.88-37.50Q26.40-37.50 29.43-35.70L29.43-35.70L29.43-35.70Q32.46-33.90 32.46-31.08L32.46-31.08L32.46-31.08Q32.46-29.52 31.68-28.38L31.68-28.38L31.68-28.38Q30.90-27.24 29.88-26.58L29.88-26.58L29.88-26.58Q28.32-27.60 26.55-28.32L26.55-28.32L26.55-28.32Q24.78-29.04 22.44-29.04ZM67.56-14.58L67.56-14.58L67.56-14.58Q67.56-10.86 66.42-7.95L66.42-7.95L66.42-7.95Q65.28-5.04 63.21-3.06L63.21-3.06L63.21-3.06Q61.14-1.08 58.26-0.06L58.26-0.06L58.26-0.06Q55.38 0.96 51.84 0.96L51.84 0.96L51.84 0.96Q48.30 0.96 45.42-0.12L45.42-0.12L45.42-0.12Q42.54-1.20 40.47-3.21L40.47-3.21L40.47-3.21Q38.40-5.22 37.26-8.10L37.26-8.10L37.26-8.10Q36.12-10.98 36.12-14.58L36.12-14.58L36.12-14.58Q36.12-18.12 37.26-21L37.26-21L37.26-21Q38.40-23.88 40.47-25.89L40.47-25.89L40.47-25.89Q42.54-27.90 45.42-28.98L45.42-28.98L45.42-28.98Q48.30-30.06 51.84-30.06L51.84-30.06L51.84-30.06Q55.38-30.06 58.26-28.95L58.26-28.95L58.26-28.95Q61.14-27.84 63.21-25.83L63.21-25.83L63.21-25.83Q65.28-23.82 66.42-20.94L66.42-20.94L66.42-20.94Q67.56-18.06 67.56-14.58ZM46.56-14.58L46.56-14.58L46.56-14.58Q46.56-10.92 47.97-8.97L47.97-8.97L47.97-8.97Q49.38-7.02 51.90-7.02L51.90-7.02L51.90-7.02Q54.42-7.02 55.77-9L55.77-9L55.77-9Q57.12-10.98 57.12-14.58L57.12-14.58L57.12-14.58Q57.12-18.18 55.74-20.13L55.74-20.13L55.74-20.13Q54.36-22.08 51.84-22.08L51.84-22.08L51.84-22.08Q49.32-22.08 47.94-20.13L47.94-20.13L47.94-20.13Q46.56-18.18 46.56-14.58ZM82.92-34.86L82.92-0.06L82.92-0.06Q82.26 0.06 80.97 0.27L80.97 0.27L80.97 0.27Q79.68 0.48 78.36 0.48L78.36 0.48L78.36 0.48Q77.04 0.48 75.99 0.30L75.99 0.30L75.99 0.30Q74.94 0.12 74.22-0.42L74.22-0.42L74.22-0.42Q73.50-0.96 73.11-1.89L73.11-1.89L73.11-1.89Q72.72-2.82 72.72-4.32L72.72-4.32L72.72-39.12L72.72-39.12Q73.38-39.24 74.67-39.45L74.67-39.45L74.67-39.45Q75.96-39.66 77.28-39.66L77.28-39.66L77.28-39.66Q78.60-39.66 79.65-39.48L79.65-39.48L79.65-39.48Q80.70-39.30 81.42-38.76L81.42-38.76L81.42-38.76Q82.14-38.22 82.53-37.29L82.53-37.29L82.53-37.29Q82.92-36.36 82.92-34.86L82.92-34.86ZM119.52-14.58L119.52-14.58L119.52-14.58Q119.52-10.86 118.38-7.95L118.38-7.95L118.38-7.95Q117.24-5.04 115.17-3.06L115.17-3.06L115.17-3.06Q113.10-1.08 110.22-0.06L110.22-0.06L110.22-0.06Q107.34 0.96 103.80 0.96L103.80 0.96L103.80 0.96Q100.26 0.96 97.38-0.12L97.38-0.12L97.38-0.12Q94.50-1.20 92.43-3.21L92.43-3.21L92.43-3.21Q90.36-5.22 89.22-8.10L89.22-8.10L89.22-8.10Q88.08-10.98 88.08-14.58L88.08-14.58L88.08-14.58Q88.08-18.12 89.22-21L89.22-21L89.22-21Q90.36-23.88 92.43-25.89L92.43-25.89L92.43-25.89Q94.50-27.90 97.38-28.98L97.38-28.98L97.38-28.98Q100.26-30.06 103.80-30.06L103.80-30.06L103.80-30.06Q107.34-30.06 110.22-28.95L110.22-28.95L110.22-28.95Q113.10-27.84 115.17-25.83L115.17-25.83L115.17-25.83Q117.24-23.82 118.38-20.94L118.38-20.94L118.38-20.94Q119.52-18.06 119.52-14.58ZM98.52-14.58L98.52-14.58L98.52-14.58Q98.52-10.92 99.93-8.97L99.93-8.97L99.93-8.97Q101.34-7.02 103.86-7.02L103.86-7.02L103.86-7.02Q106.38-7.02 107.73-9L107.73-9L107.73-9Q109.08-10.98 109.08-14.58L109.08-14.58L109.08-14.58Q109.08-18.18 107.70-20.13L107.70-20.13L107.70-20.13Q106.32-22.08 103.80-22.08L103.80-22.08L103.80-22.08Q101.28-22.08 99.90-20.13L99.90-20.13L99.90-20.13Q98.52-18.18 98.52-14.58ZM134.70-20.52L134.70-0.06L134.70-0.06Q134.10 0.12 132.81 0.30L132.81 0.30L132.81 0.30Q131.52 0.48 130.14 0.48L130.14 0.48L130.14 0.48Q128.82 0.48 127.77 0.30L127.77 0.30L127.77 0.30Q126.72 0.12 126.00-0.42L126.00-0.42L126.00-0.42Q125.28-0.96 124.89-1.89L124.89-1.89L124.89-1.89Q124.50-2.82 124.50-4.32L124.50-4.32L124.50-22.32L124.50-22.32Q124.50-23.70 125.01-24.69L125.01-24.69L125.01-24.69Q125.52-25.68 126.48-26.46L126.48-26.46L126.48-26.46Q127.44-27.24 128.85-27.87L128.85-27.87L128.85-27.87Q130.26-28.50 131.88-28.98L131.88-28.98L131.88-28.98Q133.50-29.46 135.24-29.73L135.24-29.73L135.24-29.73Q136.98-30 138.72-30L138.72-30L138.72-30Q141.60-30 143.28-28.89L143.28-28.89L143.28-28.89Q144.96-27.78 144.96-25.26L144.96-25.26L144.96-25.26Q144.96-24.42 144.72-23.61L144.72-23.61L144.72-23.61Q144.48-22.80 144.12-22.14L144.12-22.14L144.12-22.14Q142.86-22.14 141.54-22.02L141.54-22.02L141.54-22.02Q140.22-21.90 138.96-21.66L138.96-21.66L138.96-21.66Q137.70-21.42 136.59-21.15L136.59-21.15L136.59-21.15Q135.48-20.88 134.70-20.52L134.70-20.52ZM169.26-27.96L160.26-27.96L160.26-27.96Q159.84-28.62 159.48-29.76L159.48-29.76L159.48-29.76Q159.12-30.90 159.12-32.16L159.12-32.16L159.12-32.16Q159.12-34.50 160.17-35.52L160.17-35.52L160.17-35.52Q161.22-36.54 162.90-36.54L162.90-36.54L189.06-36.54L189.06-36.54Q189.48-35.88 189.84-34.74L189.84-34.74L189.84-34.74Q190.20-33.60 190.20-32.34L190.20-32.34L190.20-32.34Q190.20-30 189.15-28.98L189.15-28.98L189.15-28.98Q188.10-27.96 186.42-27.96L186.42-27.96L179.76-27.96L179.76-0.24L179.76-0.24Q179.10-0.06 177.69 0.12L177.69 0.12L177.69 0.12Q176.28 0.30 174.90 0.30L174.90 0.30L174.90 0.30Q173.52 0.30 172.47 0.09L172.47 0.09L172.47 0.09Q171.42-0.12 170.70-0.66L170.70-0.66L170.70-0.66Q169.98-1.20 169.62-2.16L169.62-2.16L169.62-2.16Q169.26-3.12 169.26-4.68L169.26-4.68L169.26-27.96ZM224.70-14.58L224.70-14.58L224.70-14.58Q224.70-10.86 223.56-7.95L223.56-7.95L223.56-7.95Q222.42-5.04 220.35-3.06L220.35-3.06L220.35-3.06Q218.28-1.08 215.40-0.06L215.40-0.06L215.40-0.06Q212.52 0.96 208.98 0.96L208.98 0.96L208.98 0.96Q205.44 0.96 202.56-0.12L202.56-0.12L202.56-0.12Q199.68-1.20 197.61-3.21L197.61-3.21L197.61-3.21Q195.54-5.22 194.40-8.10L194.40-8.10L194.40-8.10Q193.26-10.98 193.26-14.58L193.26-14.58L193.26-14.58Q193.26-18.12 194.40-21L194.40-21L194.40-21Q195.54-23.88 197.61-25.89L197.61-25.89L197.61-25.89Q199.68-27.90 202.56-28.98L202.56-28.98L202.56-28.98Q205.44-30.06 208.98-30.06L208.98-30.06L208.98-30.06Q212.52-30.06 215.40-28.95L215.40-28.95L215.40-28.95Q218.28-27.84 220.35-25.83L220.35-25.83L220.35-25.83Q222.42-23.82 223.56-20.94L223.56-20.94L223.56-20.94Q224.70-18.06 224.70-14.58ZM203.70-14.58L203.70-14.58L203.70-14.58Q203.70-10.92 205.11-8.97L205.11-8.97L205.11-8.97Q206.52-7.02 209.04-7.02L209.04-7.02L209.04-7.02Q211.56-7.02 212.91-9L212.91-9L212.91-9Q214.26-10.98 214.26-14.58L214.26-14.58L214.26-14.58Q214.26-18.18 212.88-20.13L212.88-20.13L212.88-20.13Q211.50-22.08 208.98-22.08L208.98-22.08L208.98-22.08Q206.46-22.08 205.08-20.13L205.08-20.13L205.08-20.13Q203.70-18.18 203.70-14.58ZM229.68-11.58L229.68-28.74L229.68-28.74Q230.28-28.92 231.57-29.10L231.57-29.10L231.57-29.10Q232.86-29.28 234.24-29.28L234.24-29.28L234.24-29.28Q235.56-29.28 236.61-29.10L236.61-29.10L236.61-29.10Q237.66-28.92 238.38-28.38L238.38-28.38L238.38-28.38Q239.10-27.84 239.49-26.91L239.49-26.91L239.49-26.91Q239.88-25.98 239.88-24.48L239.88-24.48L239.88-11.58L239.88-11.58Q239.88-9.12 241.08-8.07L241.08-8.07L241.08-8.07Q242.28-7.02 244.56-7.02L244.56-7.02L244.56-7.02Q245.94-7.02 246.81-7.26L246.81-7.26L246.81-7.26Q247.68-7.50 248.16-7.74L248.16-7.74L248.16-28.74L248.16-28.74Q248.76-28.92 250.05-29.10L250.05-29.10L250.05-29.10Q251.34-29.28 252.72-29.28L252.72-29.28L252.72-29.28Q254.04-29.28 255.09-29.10L255.09-29.10L255.09-29.10Q256.14-28.92 256.86-28.38L256.86-28.38L256.86-28.38Q257.58-27.84 257.97-26.91L257.97-26.91L257.97-26.91Q258.36-25.98 258.36-24.48L258.36-24.48L258.36-6.24L258.36-6.24Q258.36-3.24 255.84-1.74L255.84-1.74L255.84-1.74Q253.74-0.42 250.83 0.27L250.83 0.27L250.83 0.27Q247.92 0.96 244.50 0.96L244.50 0.96L244.50 0.96Q241.26 0.96 238.53 0.24L238.53 0.24L238.53 0.24Q235.80-0.48 233.82-1.98L233.82-1.98L233.82-1.98Q231.84-3.48 230.76-5.85L230.76-5.85L230.76-5.85Q229.68-8.22 229.68-11.58L229.68-11.58ZM281.04-22.02L281.04-22.02L281.04-22.02Q279.54-22.02 278.19-21.54L278.19-21.54L278.19-21.54Q276.84-21.06 275.85-20.13L275.85-20.13L275.85-20.13Q274.86-19.20 274.26-17.82L274.26-17.82L274.26-17.82Q273.66-16.44 273.66-14.58L273.66-14.58L273.66-14.58Q273.66-10.86 275.79-9L275.79-9L275.79-9Q277.92-7.14 280.98-7.14L280.98-7.14L280.98-7.14Q282.78-7.14 284.10-7.56L284.10-7.56L284.10-7.56Q285.42-7.98 286.44-8.46L286.44-8.46L286.44-8.46Q287.64-7.62 288.24-6.63L288.24-6.63L288.24-6.63Q288.84-5.64 288.84-4.26L288.84-4.26L288.84-4.26Q288.84-1.80 286.50-0.45L286.50-0.45L286.50-0.45Q284.16 0.90 280.02 0.90L280.02 0.90L280.02 0.90Q276.24 0.90 273.18-0.21L273.18-0.21L273.18-0.21Q270.12-1.32 267.93-3.33L267.93-3.33L267.93-3.33Q265.74-5.34 264.54-8.16L264.54-8.16L264.54-8.16Q263.34-10.98 263.34-14.40L263.34-14.40L263.34-14.40Q263.34-18.36 264.63-21.33L264.63-21.33L264.63-21.33Q265.92-24.30 268.14-26.22L268.14-26.22L268.14-26.22Q270.36-28.14 273.27-29.10L273.27-29.10L273.27-29.10Q276.18-30.06 279.42-30.06L279.42-30.06L279.42-30.06Q283.74-30.06 286.08-28.50L286.08-28.50L286.08-28.50Q288.42-26.94 288.42-24.48L288.42-24.48L288.42-24.48Q288.42-23.34 287.88-22.35L287.88-22.35L287.88-22.35Q287.34-21.36 286.62-20.64L286.62-20.64L286.62-20.64Q285.60-21.12 284.16-21.57L284.16-21.57L284.16-21.57Q282.72-22.02 281.04-22.02ZM322.74-18.24L322.74-0.06L322.74-0.06Q322.14 0.12 320.85 0.30L320.85 0.30L320.85 0.30Q319.56 0.48 318.18 0.48L318.18 0.48L318.18 0.48Q316.86 0.48 315.81 0.30L315.81 0.30L315.81 0.30Q314.76 0.12 314.04-0.42L314.04-0.42L314.04-0.42Q313.32-0.96 312.93-1.89L312.93-1.89L312.93-1.89Q312.54-2.82 312.54-4.32L312.54-4.32L312.54-17.64L312.54-17.64Q312.54-20.10 311.31-21.09L311.31-21.09L311.31-21.09Q310.08-22.08 308.28-22.08L308.28-22.08L308.28-22.08Q307.08-22.08 306.00-21.78L306.00-21.78L306.00-21.78Q304.92-21.48 304.26-21.06L304.26-21.06L304.26-0.06L304.26-0.06Q303.66 0.12 302.37 0.30L302.37 0.30L302.37 0.30Q301.08 0.48 299.70 0.48L299.70 0.48L299.70 0.48Q298.38 0.48 297.33 0.30L297.33 0.30L297.33 0.30Q296.28 0.12 295.56-0.42L295.56-0.42L295.56-0.42Q294.84-0.96 294.45-1.89L294.45-1.89L294.45-1.89Q294.06-2.82 294.06-4.32L294.06-4.32L294.06-39.12L294.06-39.12Q294.72-39.24 296.01-39.45L296.01-39.45L296.01-39.45Q297.30-39.66 298.62-39.66L298.62-39.66L298.62-39.66Q299.94-39.66 300.99-39.48L300.99-39.48L300.99-39.48Q302.04-39.30 302.76-38.76L302.76-38.76L302.76-38.76Q303.48-38.22 303.87-37.29L303.87-37.29L303.87-37.29Q304.26-36.36 304.26-34.86L304.26-34.86L304.26-28.98L304.26-28.98Q305.04-29.28 306.63-29.67L306.63-29.67L306.63-29.67Q308.22-30.06 310.14-30.06L310.14-30.06L310.14-30.06Q316.08-30.06 319.41-27.09L319.41-27.09L319.41-27.09Q322.74-24.12 322.74-18.24L322.74-18.24Z" fill="#ffffff" stroke="#268dc3" stroke-width="1.5" style="--darkreader-inline-fill: #181a1b; --darkreader-inline-stroke: #4caadc;" data-darkreader-inline-fill="" data-darkreader-inline-stroke=""></path></g></g><style>text {
  font-size: 64px;
  font-family: Arial Black;
  dominant-baseline: central;
  text-anchor: middle;
}</style><style class="darkreader darkreader--sync" media="screen"></style></svg>